<svg xmlns="http://www.w3.org/2000/svg" viewBox="0 0 24 24" fill="none" stroke="#8bc3ff" stroke-width="1.9" stroke-linecap="round" stroke-linejoin="round">
  <circle cx="12" cy="12" r="3.2"/>
  <path d="M19.1 14.6a1.1 1.1 0 0 0 .2 1.2l.1.1a1.5 1.5 0 1 1-2.1 2.1l-.1-.1a1.1 1.1 0 0 0-1.2-.2 1.1 1.1 0 0 0-.7 1V19a1.5 1.5 0 0 1-3 0v-.2a1.1 1.1 0 0 0-.7-1 1.1 1.1 0 0 0-1.2.2l-.1.1a1.5 1.5 0 1 1-2.1-2.1l.1-.1a1.1 1.1 0 0 0 .2-1.2 1.1 1.1 0 0 0-1-.7H5a1.5 1.5 0 0 1 0-3h.2a1.1 1.1 0 0 0 1-.7 1.1 1.1 0 0 0-.2-1.2l-.1-.1a1.5 1.5 0 1 1 2.1-2.1l.1.1a1.1 1.1 0 0 0 1.2.2 1.1 1.1 0 0 0 .7-1V5a1.5 1.5 0 0 1 3 0v.2a1.1 1.1 0 0 0 .7 1 1.1 1.1 0 0 0 1.2-.2l.1-.1a1.5 1.5 0 1 1 2.1 2.1l-.1.1a1.1 1.1 0 0 0-.2 1.2 1.1 1.1 0 0 0 1 .7H19a1.5 1.5 0 0 1 0 3h-.2a1.1 1.1 0 0 0-1 .7z"/>
</svg>
