<svg xmlns="http://www.w3.org/2000/svg" viewBox="0 0 40 40"><path d="M2 39v-5c1-4 6-7 10-9L8 16c-1-8 4-15 12-15s13 7 12 15l-4 9c6 3 9 6 10 10v4z" fill="#637e6c" stroke="#2f493f" stroke-width="1"/>
<path d="M20 2C10 6 9 12 11 21l4 5 5-4 5 4 4-7C29 10 26 5 20 2z" fill="#3b574b"/>
<path d="m20 5-7 7-1 6 4 8h8l4-8-1-6z" fill="#c8b18b"/><path d="m20 6 1 10 5 3-3 6h-5l-4-6 1-7z" fill="#ddc6a1"/>
<path d="m13 13 5-1m4 0 5 1" stroke="#5b5541" stroke-width="1.2" stroke-linecap="round"/><path d="M15 15h2m6 0h2" stroke="#35443b" stroke-width="1.2"/><path d="m20 15-1 4 3 .5" fill="none" stroke="#a48b68" stroke-width=".9"/>
<path d="m14 20 3 1 3-1 3 1 3-1-3 5-3 2-3-2z" fill="#7c7053"/><path d="M18 22h4" stroke="#cfb992" stroke-width=".8"/>
<path d="m9 25 11 8 11-8-5 13H14z" fill="#8d9a79"/><path d="m4 35 8-7m24 7-8-7M20 3l-9 9v9m9-18 9 9v9" fill="none" stroke="#b7b795" stroke-width=".8"/>
<path d="m8 29 17 10h7L10 27z" fill="#8b7758" stroke="#3e5043"/><circle cx="23" cy="34" r="2.8" fill="#ccb482" stroke="#5d634b"/><circle cx="23" cy="34" r="1.2" fill="#78856a"/></svg>